<svg id="visual" viewBox="0 0 960 300" width="960" height="300" xmlns="http://www.w3.org/2000/svg" xmlns:xlink="http://www.w3.org/1999/xlink" version="1.1"><rect x="0" y="0" width="960" height="300" fill="#001220"></rect><path d="M0 88L22.8 89.8C45.7 91.7 91.3 95.3 137 93.2C182.7 91 228.3 83 274 84C319.7 85 365.3 95 411.2 102C457 109 503 113 548.8 109.5C594.7 106 640.3 95 686 90.3C731.7 85.7 777.3 87.3 823 92.5C868.7 97.7 914.3 106.3 937.2 110.7L960 115L960 0L937.2 0C914.3 0 868.7 0 823 0C777.3 0 731.7 0 686 0C640.3 0 594.7 0 548.8 0C503 0 457 0 411.2 0C365.3 0 319.7 0 274 0C228.3 0 182.7 0 137 0C91.3 0 45.7 0 22.8 0L0 0Z" fill="#fa7268"></path><path d="M0 61L22.8 62.2C45.7 63.3 91.3 65.7 137 66.3C182.7 67 228.3 66 274 71.2C319.7 76.3 365.3 87.7 411.2 92C457 96.3 503 93.7 548.8 88.7C594.7 83.7 640.3 76.3 686 72.8C731.7 69.3 777.3 69.7 823 74.5C868.7 79.3 914.3 88.7 937.2 93.3L960 98L960 0L937.2 0C914.3 0 868.7 0 823 0C777.3 0 731.7 0 686 0C640.3 0 594.7 0 548.8 0C503 0 457 0 411.2 0C365.3 0 319.7 0 274 0C228.3 0 182.7 0 137 0C91.3 0 45.7 0 22.8 0L0 0Z" fill="#ef5f67"></path><path d="M0 70L22.8 67.3C45.7 64.7 91.3 59.3 137 58.7C182.7 58 228.3 62 274 65C319.7 68 365.3 70 411.2 69.3C457 68.7 503 65.3 548.8 65.3C594.7 65.3 640.3 68.7 686 67C731.7 65.3 777.3 58.7 823 56C868.7 53.3 914.3 54.7 937.2 55.3L960 56L960 0L937.2 0C914.3 0 868.7 0 823 0C777.3 0 731.7 0 686 0C640.3 0 594.7 0 548.8 0C503 0 457 0 411.2 0C365.3 0 319.7 0 274 0C228.3 0 182.7 0 137 0C91.3 0 45.7 0 22.8 0L0 0Z" fill="#e34c67"></path><path d="M0 39L22.8 42.2C45.7 45.3 91.3 51.7 137 53C182.7 54.3 228.3 50.7 274 46.8C319.7 43 365.3 39 411.2 40.3C457 41.7 503 48.3 548.8 51.3C594.7 54.3 640.3 53.7 686 53.3C731.7 53 777.3 53 823 51.3C868.7 49.7 914.3 46.3 937.2 44.7L960 43L960 0L937.2 0C914.3 0 868.7 0 823 0C777.3 0 731.7 0 686 0C640.3 0 594.7 0 548.8 0C503 0 457 0 411.2 0C365.3 0 319.7 0 274 0C228.3 0 182.7 0 137 0C91.3 0 45.7 0 22.8 0L0 0Z" fill="#d53867"></path><path d="M0 33L22.8 31.2C45.7 29.3 91.3 25.7 137 22.2C182.7 18.7 228.3 15.3 274 16.8C319.7 18.3 365.3 24.7 411.2 25.2C457 25.7 503 20.3 548.8 18.5C594.7 16.7 640.3 18.3 686 19.5C731.7 20.7 777.3 21.3 823 21.2C868.7 21 914.3 20 937.2 19.5L960 19L960 0L937.2 0C914.3 0 868.7 0 823 0C777.3 0 731.7 0 686 0C640.3 0 594.7 0 548.8 0C503 0 457 0 411.2 0C365.3 0 319.7 0 274 0C228.3 0 182.7 0 137 0C91.3 0 45.7 0 22.8 0L0 0Z" fill="#c62368"></path></svg>